<?xml version="1.0" standalone="no"?><!DOCTYPE svg PUBLIC "-//W3C//DTD SVG 1.1//EN" "http://www.w3.org/Graphics/SVG/1.1/DTD/svg11.dtd"><svg t="1567174556806" class="icon" viewBox="0 0 1024 1024" version="1.1" xmlns="http://www.w3.org/2000/svg" p-id="4470" xmlns:xlink="http://www.w3.org/1999/xlink" width="48" height="48"><defs><style type="text/css"></style></defs><path d="M928 1024H96c-38 0-68.8-30.8-68.8-68.8v-37.2h969.6v37.2c0 38-30.8 68.8-68.8 68.8zM39.6 930.4v24.8c0 31.2 25.2 56.4 56.4 56.4h832c31.2 0 56.4-25.2 56.4-56.4v-24.8H39.6z" fill="#4A555F" p-id="4471"></path><path d="M96 997.2c-23.2 0-41.6-18.8-41.6-41.6v-10.4h915.6v10.4c0 23.2-18.8 41.6-41.6 41.6H96z" fill="#E0E0E0" p-id="4472"></path><path d="M561.6 975.2h-99.2c-20 0-36-16-36-36v-21.2h171.6v21.2c-0.4 20-16.4 36-36.4 36z m-122.8-44.8v8.8c0 13.2 10.8 23.6 23.6 23.6h99.2c13.2 0 23.6-10.8 23.6-23.6v-8.8h-146.4z" fill="#4A555F" p-id="4473"></path><path d="M264.4 446.8l0.8 396H201.6v-396zM760.4 446.8h62.4v396h-62.4z" fill="#F68F6F" p-id="4474"></path><path d="M857.6 930.4H166.4c-30 0-54-24.4-54-54v-468c0-29.6 24.4-54 54-54h104v78H187.2v424.8h650V432.4h-82.8V354.4h103.6c29.6 0 54 24.4 54 54v468c0 30-24.4 54-54.4 54zM166.4 366.8c-22.8 0-41.6 18.8-41.6 41.6v468c0 22.8 18.8 41.6 41.6 41.6h691.6c22.8 0 41.6-18.8 41.6-41.6v-468c0-22.8-18.8-41.6-41.6-41.6h-91.2V420h82.8v449.6H174.8V420h83.6V366.8h-92z" fill="#4A555F" p-id="4475"></path><path d="M166.4 903.6c-14.8 0-27.2-12-27.2-27.2v-468c0-14.8 12-27.2 27.2-27.2h77.2v24H160V884h704V405.6h-82.8v-24h76.8c14.8 0 27.2 12 27.2 27.2v468c0 14.8-12 27.2-27.2 27.2H166.4z" fill="#E0E0E0" p-id="4476"></path><path d="M455.6 425.6h230v12.4h-230zM455.6 354.4h230v12.4h-230zM340.8 496.8h344.8v12.4H340.8zM340.8 567.6h344.8v12.4H340.8zM340.8 638.8h128.4v12.4H340.8zM340.8 710h128.4v12.4H340.8zM340.8 780.8h344.8v12.4H340.8zM692 726h-183.6v-104.8H692v104.8z m-171.2-12.4h158.8v-80h-158.8v80zM367.6 362H380v80.4h-12.4z" fill="#4A555F" p-id="4477"></path><path d="M417.6 376.8h-12.4V368H344.4v8.8H332v-21.2h85.6zM356 436h37.6v12.4H356zM544.4 667.6h23.2v12.4h-23.2zM588.4 667.6h23.2v12.4h-23.2zM632.4 667.6h23.2v12.4h-23.2zM520.8 111.6h-12.4v-12.4h12.4v12.4z m0-24.8h-12.4v-12.4h12.4v12.4z m0-24.8h-12.4v-12.4h12.4v12.4z m0-24.8h-12.4V24.8h12.4v12.4z m0-24.8h-12.4V0h12.4v12.4zM807.6 146.4l-9.2-8.4 8.4-9.2 9.2 8.4-8.4 9.2z m16.8-18.4l-9.2-8.4 8.4-9.2 9.2 8.4-8.4 9.2zM216 146.4l-8.4-9.2 9.2-8.4 8.4 9.2-9.2 8.4zM199.6 128l-8.4-9.2 9.2-8.4 8.4 9.2-9.2 8.4z" fill="#4A555F" p-id="4478"></path><path d="M766.4 869.6H259.2l-1.6-680.8h508.8v680.8z m-495.2-12.4h482.8v-656h-484l1.2 656z" fill="#4A555F" p-id="4479"></path><path d="M692 308H334.4V260H692v48z m-344.8-12.4h332.4v-23.2H347.2v23.2z" fill="#4A555F" p-id="4480"></path></svg>